<svg width="150" height="150" viewBox="0 0 150 150" fill="none" xmlns="http://www.w3.org/2000/svg">
<g clip-path="url(#clip0_344_4985)">
<path d="M98.9395 39.5507H74.3195C73.7805 39.5524 73.2483 39.431 72.7632 39.196C72.2782 38.9609 71.8532 38.6183 71.5205 38.1942C71.1818 37.7662 70.9452 37.2665 70.8287 36.7332C70.7123 36.1999 70.719 35.647 70.8485 35.1167C73.1176 25.6125 73.1175 15.7076 70.8484 6.20342C70.719 5.67314 70.7123 5.12033 70.8287 4.58706C70.9452 4.0538 71.1818 3.55412 71.5204 3.12605C71.8531 2.70195 72.2781 2.35934 72.7632 2.12428C73.2482 1.88921 73.7805 1.76789 74.3195 1.76955H98.9395C99.7895 1.77199 100.611 2.07609 101.258 2.62767C101.905 3.17925 102.335 3.94251 102.471 4.7815C104.092 15.3053 104.092 26.015 102.471 36.5388C102.335 37.3778 101.905 38.141 101.258 38.6926C100.611 39.2442 99.7895 39.5483 98.9395 39.5507Z" fill="#E6E6E6"/>
<path d="M74.3216 3.6211C74.0628 3.62023 73.8071 3.67841 73.5742 3.79122C73.3412 3.90402 73.137 4.06847 72.9772 4.27207C72.8126 4.48067 72.6977 4.72406 72.6413 4.98373C72.585 5.2434 72.5886 5.5125 72.6518 5.77058C74.9888 15.5588 74.9889 25.7596 72.652 35.5478C72.5887 35.8058 72.585 36.0749 72.6414 36.3345C72.6977 36.5942 72.8125 36.8375 72.9771 37.046C73.1369 37.2497 73.3412 37.4143 73.5742 37.5272C73.8071 37.64 74.0628 37.6982 74.3216 37.6973H98.9416C99.3498 37.6974 99.7448 37.5527 100.056 37.2888C100.368 37.0249 100.575 36.6591 100.642 36.2564C102.234 25.9192 102.234 15.3992 100.642 5.06202C100.575 4.65933 100.368 4.29347 100.056 4.02959C99.7448 3.76572 99.3498 3.62096 98.9416 3.6211L74.3216 3.6211Z" fill="white"/>
<path d="M93.5688 12.5303H80.6493C80.1582 12.5298 79.6873 12.3344 79.34 11.9871C78.9927 11.6399 78.7974 11.169 78.7969 10.6779V9.95398C78.7974 9.46285 78.9927 8.992 79.34 8.64472C79.6873 8.29744 80.1582 8.1021 80.6493 8.10156H93.5688C94.06 8.1021 94.5308 8.29744 94.8781 8.64472C95.2254 8.992 95.4207 9.46285 95.4212 9.95398V10.6779C95.4207 11.169 95.2254 11.6399 94.8781 11.9871C94.5308 12.3344 94.06 12.5298 93.5688 12.5303Z" fill="#E6E6E6"/>
<path d="M93.5688 21.6748H80.6493C80.1582 21.6743 79.6873 21.4789 79.34 21.1317C78.9927 20.7844 78.7974 20.3135 78.7969 19.8224V19.0985C78.7974 18.6074 78.9927 18.1365 79.34 17.7892C79.6873 17.442 80.1582 17.2466 80.6493 17.2461H93.5688C94.06 17.2466 94.5308 17.442 94.8781 17.7892C95.2254 18.1365 95.4207 18.6074 95.4212 19.0985V19.8224C95.4207 20.3135 95.2254 20.7844 94.8781 21.1317C94.5308 21.4789 94.06 21.6743 93.5688 21.6748Z" fill="#E6E6E6"/>
<path d="M93.5688 30.8233H80.6493C80.1582 30.8227 79.6873 30.6274 79.34 30.2801C78.9927 29.9328 78.7974 29.462 78.7969 28.9708V28.2469C78.7974 27.7558 78.9927 27.285 79.34 26.9377C79.6873 26.5904 80.1582 26.3951 80.6493 26.3945H93.5688C94.06 26.3951 94.5308 26.5904 94.8781 26.9377C95.2254 27.285 95.4207 27.7558 95.4212 28.2469V28.9708C95.4207 29.462 95.2254 29.9328 94.8781 30.2801C94.5308 30.6274 94.06 30.8227 93.5688 30.8233Z" fill="#E6E6E6"/>
<path d="M145.252 63.0156H120.632C120.093 63.0172 119.561 62.8959 119.076 62.6608C118.591 62.4257 118.166 62.0832 117.833 61.6591C117.494 61.231 117.258 60.7313 117.141 60.198C117.025 59.6647 117.032 59.1119 117.161 58.5816C119.43 49.0773 119.43 39.1725 117.161 29.6683C117.031 29.138 117.025 28.5852 117.141 28.0519C117.258 27.5186 117.494 27.019 117.833 26.5909C118.166 26.1668 118.591 25.8242 119.076 25.5891C119.561 25.3541 120.093 25.2327 120.632 25.2344H145.252C146.102 25.2368 146.924 25.5409 147.57 26.0925C148.217 26.6441 148.647 27.4074 148.784 28.2463C150.404 38.7701 150.404 49.4799 148.784 60.0036C148.647 60.8426 148.217 61.6059 147.57 62.1575C146.924 62.709 146.102 63.0131 145.252 63.0156Z" fill="#E6E6E6"/>
<path d="M120.634 27.0859C120.375 27.0851 120.12 27.1433 119.887 27.2561C119.654 27.3689 119.45 27.5333 119.29 27.7369C119.125 27.9455 119.01 28.1889 118.954 28.4486C118.897 28.7082 118.901 28.9773 118.964 29.2354C121.301 39.0236 121.301 49.2245 118.964 59.0127C118.901 59.2707 118.898 59.5397 118.954 59.7994C119.01 60.059 119.125 60.3023 119.29 60.5109C119.449 60.7145 119.654 60.8792 119.887 60.992C120.12 61.1048 120.375 61.163 120.634 61.1622H145.254C145.662 61.1623 146.057 61.0175 146.369 60.7537C146.68 60.4898 146.888 60.1239 146.955 59.7212C148.546 49.384 148.546 38.8641 146.955 28.5269C146.888 28.1242 146.68 27.7583 146.369 27.4944C146.057 27.2306 145.662 27.0858 145.254 27.0859L120.634 27.0859Z" fill="white"/>
<path d="M96.1603 89.7228H71.5403C70.978 89.7244 70.4227 89.5978 69.9167 89.3526C69.4106 89.1073 68.9672 88.7499 68.6201 88.3075C68.2669 87.8611 68.0202 87.34 67.8987 86.7839C67.7773 86.2278 67.7843 85.6513 67.9193 85.0983C70.1827 75.6178 70.1826 65.7376 67.9191 56.2571C67.7842 55.7041 67.7772 55.1277 67.8987 54.5716C68.0202 54.0155 68.2669 53.4945 68.6201 53.0481C68.9671 52.6057 69.4106 52.2482 69.9166 52.003C70.4227 51.7577 70.978 51.6311 71.5403 51.6328H96.1603C97.0472 51.6355 97.9043 51.9528 98.579 52.5284C99.2537 53.1039 99.7022 53.9003 99.8446 54.7756C101.467 65.315 101.467 76.0406 99.8446 86.58C99.7022 87.4553 99.2537 88.2517 98.579 88.8272C97.9043 89.4027 97.0472 89.7201 96.1603 89.7228Z" fill="#F2F2F2"/>
<path d="M139.881 40.624H126.962C126.471 40.6235 126 40.4282 125.653 40.0809C125.305 39.7336 125.11 39.2627 125.109 38.7716V38.0477C125.11 37.5566 125.305 37.0857 125.653 36.7385C126 36.3912 126.471 36.1958 126.962 36.1953H139.881C140.372 36.1958 140.843 36.3912 141.191 36.7385C141.538 37.0857 141.733 37.5566 141.734 38.0477V38.7716C141.733 39.2628 141.538 39.7336 141.191 40.0809C140.843 40.4282 140.372 40.6235 139.881 40.624Z" fill="#E6E6E6"/>
<path d="M139.881 49.7725H126.962C126.471 49.7719 126 49.5766 125.653 49.2293C125.305 48.882 125.11 48.4112 125.109 47.9201V47.1962C125.11 46.705 125.305 46.2342 125.653 45.8869C126 45.5396 126.471 45.3443 126.962 45.3438H139.881C140.372 45.3443 140.843 45.5396 141.191 45.8869C141.538 46.2342 141.733 46.705 141.734 47.1962V47.9201C141.733 48.4112 141.538 48.882 141.191 49.2293C140.843 49.5766 140.372 49.7719 139.881 49.7725Z" fill="#E6E6E6"/>
<path d="M83.9215 77.6516C87.8434 77.6516 91.0227 74.4723 91.0227 70.5504C91.0227 66.6285 87.8434 63.4492 83.9215 63.4492C79.9996 63.4492 76.8203 66.6285 76.8203 70.5504C76.8203 74.4723 79.9996 77.6516 83.9215 77.6516Z" fill="white"/>
<path d="M87.3163 69.6228H84.8464V67.1528C84.8464 66.9072 84.7488 66.6716 84.5751 66.4979C84.4014 66.3242 84.1658 66.2266 83.9201 66.2266C83.6745 66.2266 83.4389 66.3242 83.2652 66.4979C83.0915 66.6716 82.9939 66.9072 82.9939 67.1528V69.6228H80.5239C80.2782 69.6228 80.0426 69.7204 79.8689 69.8941C79.6952 70.0678 79.5977 70.3034 79.5977 70.549C79.5977 70.7947 79.6952 71.0303 79.8689 71.204C80.0426 71.3777 80.2782 71.4753 80.5239 71.4753H82.9939V73.9453C82.9939 74.1909 83.0915 74.4265 83.2652 74.6002C83.4389 74.7739 83.6745 74.8715 83.9201 74.8715C84.1658 74.8715 84.4014 74.7739 84.5751 74.6002C84.7488 74.4265 84.8464 74.1909 84.8464 73.9453V71.4753H87.3163C87.562 71.4753 87.7976 71.3777 87.9713 71.204C88.145 71.0303 88.2426 70.7947 88.2426 70.549C88.2426 70.3034 88.145 70.0678 87.9713 69.8941C87.7976 69.7204 87.562 69.6228 87.3163 69.6228Z" fill="#E6E6E6"/>
<path d="M92.8763 5.24871H79.9089C79.5405 5.24829 79.1874 5.10178 78.9269 4.84132C78.6665 4.58085 78.5199 4.2277 78.5195 3.85934V1.38936C78.5199 1.02101 78.6665 0.66786 78.9269 0.407394C79.1874 0.146927 79.5405 0.000415129 79.9089 0H92.8763C93.2447 0.000415129 93.5978 0.146927 93.8583 0.407394C94.1187 0.66786 94.2652 1.02101 94.2657 1.38936V3.85934C94.2652 4.2277 94.1187 4.58085 93.8583 4.84132C93.5978 5.10178 93.2447 5.24829 92.8763 5.24871Z" fill="#CCCCCC"/>
<path d="M139.802 29.0221H126.835C126.466 29.0217 126.113 28.8752 125.853 28.6147C125.592 28.3543 125.446 28.0011 125.445 27.6328V25.1628C125.446 24.7944 125.592 24.4413 125.853 24.1808C126.113 23.9204 126.466 23.7739 126.835 23.7734H139.802C140.17 23.7739 140.524 23.9204 140.784 24.1808C141.045 24.4413 141.191 24.7944 141.191 25.1628V27.6328C141.191 28.0011 141.045 28.3543 140.784 28.6147C140.524 28.8752 140.17 29.0217 139.802 29.0221Z" fill="#CCCCCC"/>
<path d="M27.3522 145.44H31.1374L32.3209 130.84H27.3516L27.3522 145.44Z" fill="#FFB8B8"/>
<path d="M26.3867 144.203L33.8411 144.203H33.8414C34.4652 144.203 35.083 144.326 35.6593 144.565C36.2357 144.803 36.7594 145.153 37.2005 145.594C37.6416 146.036 37.9916 146.559 38.2303 147.136C38.469 147.712 38.5919 148.33 38.5919 148.954V149.108L26.387 149.108L26.3867 144.203Z" fill="#2F2E41"/>
<path d="M6.97718 145.44H10.7624L12.5633 130.84H6.97656L6.97718 145.44Z" fill="#FFB8B8"/>
<path d="M6.01172 144.203L13.4661 144.203H13.4664C14.0902 144.203 14.708 144.326 15.2843 144.565C15.8607 144.803 16.3844 145.153 16.8255 145.594C17.2666 146.036 17.6166 146.559 17.8553 147.136C18.094 147.712 18.2169 148.33 18.2169 148.954V149.108L6.01195 149.108L6.01172 144.203Z" fill="#2F2E41"/>
<path d="M7.64872 140.826C7.2626 140.826 6.89063 140.681 6.6067 140.419C6.45429 140.28 6.33153 140.112 6.24581 139.924C6.16009 139.737 6.11316 139.534 6.10785 139.327L4.58984 84.9219L26.1439 90.3102L32.7942 110.261C33.6517 112.827 34.023 115.531 33.8888 118.234L33.063 137.573C33.0442 137.969 32.8735 138.343 32.5863 138.616C32.2992 138.89 31.9177 139.042 31.521 139.042H27.9059C27.5328 139.041 27.1727 138.905 26.8917 138.659C26.6107 138.414 26.4276 138.075 26.3761 137.705L23.7922 116.358C23.5664 114.693 22.9839 113.096 22.0843 111.676L16.9994 103.625C16.9654 103.571 16.9156 103.529 16.8569 103.505C16.7981 103.481 16.7333 103.475 16.6712 103.489C16.6091 103.503 16.5528 103.535 16.51 103.583C16.4672 103.63 16.44 103.689 16.432 103.752L12.4416 139.285C12.3988 139.646 12.2301 139.979 11.9654 140.228C11.7007 140.476 11.3569 140.623 10.9945 140.643L7.7366 140.824C7.70729 140.825 7.67805 140.826 7.64872 140.826Z" fill="#2F2E41"/>
<path d="M22.5558 49.6976C26.7439 49.6976 30.139 46.3025 30.139 42.1144C30.139 37.9263 26.7439 34.5312 22.5558 34.5312C18.3678 34.5312 14.9727 37.9263 14.9727 42.1144C14.9727 46.3025 18.3678 49.6976 22.5558 49.6976Z" fill="#FFB8B8"/>
<path d="M26.0382 92.5237C25.9077 92.5235 25.7777 92.507 25.6513 92.4745L4.26591 86.9912C3.88356 86.8933 3.55326 86.6527 3.34292 86.3187C3.13257 85.9847 3.05816 85.5829 3.135 85.1957L8.04629 58.7389C8.35228 57.2096 9.02486 55.7774 10.0063 54.5652C10.9877 53.3531 12.2487 52.3973 13.6809 51.7798C15.0764 51.1622 16.6024 50.8976 18.1244 51.0093C19.6464 51.1211 21.1175 51.6057 22.4078 52.4206C22.7072 52.6073 23.0088 52.811 23.304 53.026C24.4923 53.9026 25.4614 55.0426 26.1352 56.3566C26.809 57.6706 27.1693 59.1228 27.1877 60.5994L27.5782 90.9581C27.5808 91.1623 27.543 91.3649 27.4668 91.5544C27.3907 91.7438 27.2777 91.9163 27.1345 92.0619C26.9913 92.2075 26.8207 92.3232 26.6326 92.4025C26.4444 92.4817 26.2423 92.5229 26.0382 92.5237Z" fill="#6C63FF"/>
<path d="M6.46647 92.8331C6.21136 92.4577 6.04167 92.0309 5.96935 91.5829C5.89703 91.1348 5.92384 90.6763 6.04789 90.2397C6.17193 89.8031 6.39019 89.399 6.68731 89.0558C6.98442 88.7127 7.35316 88.4389 7.76754 88.2537L6.81634 77.2617L11.857 79.9937L11.9874 90.013C12.2524 90.7297 12.2453 91.5188 11.9674 92.2307C11.6895 92.9425 11.1601 93.5277 10.4796 93.8753C9.79905 94.2229 9.01465 94.3088 8.27501 94.1168C7.53537 93.9247 6.89187 93.468 6.46647 92.8331Z" fill="#FFB8B8"/>
<path d="M8.26705 86.8008C8.12482 86.8006 7.98317 86.7827 7.84538 86.7474C7.54903 86.6718 7.27861 86.5175 7.06274 86.3009C6.84686 86.0842 6.69357 85.8133 6.61906 85.5166L4.14192 75.6726C3.27623 72.2345 3.68891 68.5989 5.30319 65.4423L10.4929 55.2901C10.8209 54.0746 11.6136 53.0367 12.6999 52.4003C13.7862 51.7639 15.0791 51.58 16.2998 51.8882C16.9083 52.0418 17.4801 52.3147 17.9823 52.691C18.4845 53.0674 18.9069 53.5396 19.2252 54.0805C19.55 54.629 19.7624 55.2367 19.8501 55.8682C19.9378 56.4997 19.8989 57.1423 19.7359 57.7586L12.3483 74.2784L12.436 84.1693C12.4383 84.5183 12.3334 84.8595 12.1355 85.1469C11.9375 85.4343 11.6562 85.6539 11.3293 85.7762L8.8571 86.6943C8.66832 86.7647 8.4685 86.8007 8.26705 86.8008Z" fill="#6C63FF"/>
<path d="M43.6285 88.7894C43.1776 88.7378 42.7434 88.588 42.3566 88.3505C41.9698 88.1131 41.6398 87.7937 41.3898 87.4148C41.1398 87.036 40.9759 86.607 40.9096 86.1579C40.8434 85.7089 40.8764 85.2508 41.0063 84.8159L32.0547 78.3664L37.4135 76.3281L45.0926 82.7652C45.8087 83.0319 46.4021 83.552 46.7603 84.227C47.1186 84.902 47.2168 85.685 47.0363 86.4275C46.8558 87.1701 46.4093 87.8207 45.7812 88.256C45.1531 88.6913 44.3872 88.8811 43.6285 88.7894Z" fill="#FFB8B8"/>
<path d="M38.9481 84.0823C38.6842 84.0821 38.4239 84.0207 38.1877 83.9028L29.1108 79.3589C25.9404 77.772 23.4542 75.0877 22.1144 71.8053L17.8051 61.249C17.098 60.2074 16.8284 58.9295 17.0547 57.691C17.281 56.4525 17.9849 55.3525 19.0147 54.6282C19.5293 54.2664 20.1106 54.0106 20.725 53.8758C21.3394 53.741 21.9745 53.7298 22.5932 53.8429C23.2192 53.9554 23.8167 54.1911 24.3509 54.5362C24.8852 54.8814 25.3457 55.3291 25.7056 55.8535L33.4074 72.2293L40.9611 78.615C41.2271 78.8409 41.4173 79.143 41.5061 79.4805C41.5948 79.818 41.5777 80.1746 41.4572 80.502L40.5403 82.9746C40.4206 83.2989 40.2043 83.5786 39.9207 83.7762C39.6355 83.9755 39.296 84.0824 38.9481 84.0823Z" fill="#6C63FF"/>
<path d="M20.965 49.8143C21.3679 49.9906 22.193 46.7801 21.8234 46.138C21.2737 45.1831 21.3062 45.1899 20.9413 44.5582C20.5765 43.9264 20.4948 43.0616 20.9673 42.5057C21.4398 41.9498 22.5333 42.0236 22.7489 42.7206C22.6102 41.3967 23.9197 40.3325 25.2167 40.0335C26.5138 39.7344 27.882 39.9201 29.1862 39.654C30.6998 39.3451 32.2747 38.0764 31.6708 36.4119C31.5671 36.1348 31.412 35.8798 31.2135 35.6604C30.5157 34.8759 29.5397 34.5409 28.5854 34.217C26.6002 33.5432 24.5606 32.8609 22.4654 32.9353C20.7391 33.0255 19.0765 33.6171 17.6811 34.6375C16.2858 35.658 15.2181 37.0631 14.6089 38.6808C14.4645 39.0855 14.3527 39.5011 14.2744 39.9236C13.5552 43.7905 15.8007 47.6046 19.4478 49.0771L20.965 49.8143Z" fill="#2F2E41"/>
<path opacity="0.2" d="M12.0117 84.3933L12.1837 74.2265L17.5692 63.3984L13.2467 74.5134L12.0117 84.3933Z" fill="black"/>
<path d="M60.8495 109.908L38.1138 100.462C37.6155 100.257 37.1705 99.9403 36.8128 99.5372C36.455 99.134 36.194 98.6545 36.0495 98.1353C35.9009 97.61 35.8742 97.0578 35.9713 96.5206C36.0684 95.9834 36.2867 95.4755 36.6097 95.0354C42.3518 87.1293 46.1521 77.9824 47.7032 68.335C47.7872 67.7957 47.9931 67.2826 48.3052 66.8348C48.6174 66.3871 49.0275 66.0164 49.5045 65.751C49.9745 65.487 50.4984 65.3337 51.0365 65.3027C51.5747 65.2718 52.1127 65.364 52.6098 65.5723L75.3455 75.0186C76.1296 75.347 76.7716 75.943 77.1572 76.7006C77.5429 77.4581 77.6471 78.3279 77.4514 79.1551C74.9099 89.4951 70.8007 99.3852 65.2666 108.482C64.8185 109.204 64.1286 109.744 63.3197 110.005C62.5108 110.266 61.6354 110.232 60.8495 109.908Z" fill="#E6E6E6"/>
<path d="M51.8972 67.2848C51.6585 67.1847 51.4001 67.1403 51.1416 67.1551C50.8832 67.1699 50.6316 67.2434 50.4058 67.3701C50.1738 67.4996 49.9744 67.6803 49.8227 67.8985C49.671 68.1166 49.571 68.3665 49.5305 68.6291C47.933 78.5648 44.0191 87.985 38.1055 96.1274C37.9481 96.3414 37.8415 96.5884 37.7939 96.8498C37.7463 97.1112 37.7589 97.38 37.8309 97.6357C37.9003 97.8851 38.0258 98.1155 38.1977 98.3091C38.3695 98.5026 38.5833 98.6545 38.8226 98.753L61.5583 108.199C61.9353 108.356 62.3556 108.374 62.7445 108.25C63.1333 108.126 63.4655 107.867 63.6818 107.521C69.1178 98.5858 73.1541 88.871 75.6506 78.7143C75.7433 78.3168 75.6919 77.8992 75.5055 77.536C75.3191 77.1728 75.0098 76.8876 74.6328 76.7311L51.8972 67.2848Z" fill="white"/>
<path d="M64.0015 88.313L52.0707 83.3559C51.6174 83.167 51.2575 82.8059 51.0701 82.352C50.8826 81.8981 50.8829 81.3883 51.0708 80.9345L51.3486 80.2661C51.5375 79.8127 51.8986 79.4528 52.3525 79.2654C52.8065 79.0779 53.3162 79.0782 53.77 79.2662L65.7007 84.2232C66.154 84.4121 66.5139 84.7732 66.7014 85.2271C66.8888 85.681 66.8885 86.1908 66.7006 86.6446L66.4229 87.3131C66.2339 87.7664 65.8729 88.1263 65.4189 88.3137C64.965 88.5012 64.4552 88.5009 64.0015 88.313Z" fill="#6C63FF"/>
<path d="M60.4937 96.7583L48.5629 91.8012C48.1096 91.6123 47.7497 91.2513 47.5623 90.7973C47.3748 90.3434 47.3751 89.8336 47.563 89.3799L47.8408 88.7114C48.0297 88.258 48.3908 87.8982 48.8447 87.7107C49.2986 87.5233 49.8084 87.5235 50.2622 87.7115L62.1929 92.6685C62.6463 92.8574 63.0061 93.2185 63.1936 93.6724C63.381 94.1264 63.3808 94.6361 63.1928 95.0899L62.9151 95.7584C62.7261 96.2117 62.3651 96.5716 61.9111 96.759C61.4572 96.9465 60.9474 96.9462 60.4937 96.7583Z" fill="#6C63FF"/>
<path d="M68.7822 76.4415C68.6036 76.4414 68.4267 76.4067 68.2612 76.3395L56.2392 71.4789C55.8979 71.3405 55.6254 71.0723 55.4816 70.7332C55.3377 70.3941 55.3342 70.0118 55.4719 69.6702L56.3977 67.3802C56.5359 67.0386 56.8041 66.7659 57.1433 66.622C57.4825 66.4781 57.865 66.4749 58.2066 66.613L70.2286 71.4735C70.5699 71.612 70.8424 71.8801 70.9862 72.2192C71.1301 72.5583 71.1336 72.9406 70.9959 73.2823L70.0701 75.5723C69.9661 75.8287 69.788 76.0484 69.5586 76.2032C69.3292 76.358 69.0589 76.441 68.7822 76.4415Z" fill="#CCCCCC"/>
</g>
<defs>
<clipPath id="clip0_344_4985">
<rect width="150" height="149.279" fill="white"/>
</clipPath>
</defs>
</svg>
