<svg width="274" height="220" viewBox="0 0 274 220" fill="none" xmlns="http://www.w3.org/2000/svg">
<g clip-path="url(#clip0_697_6530)">
<path d="M45.9812 219.191C45.9812 219.191 42.0338 209.475 53.8759 202.187L45.9812 219.191Z" fill="#F0F0F0"/>
<path d="M41.1276 219.014C41.1276 219.014 39.9236 212.089 30.6035 212.148L41.1276 219.014Z" fill="#F0F0F0"/>
<path d="M178.153 219.191C178.153 219.191 174.206 209.475 186.048 202.187L178.153 219.191Z" fill="#F0F0F0"/>
<path d="M173.298 219.014C173.298 219.014 172.093 212.089 162.773 212.148L173.298 219.014Z" fill="#F0F0F0"/>
<path d="M174.902 156.278C193.853 156.278 209.215 140.916 209.215 121.966C209.215 103.015 193.853 87.6531 174.902 87.6531C155.952 87.6531 140.59 103.015 140.59 121.966C140.59 140.916 155.952 156.278 174.902 156.278Z" fill="#F0F0F0"/>
<path d="M174.996 121.965H175.09L176.787 219.248H173.205L174.996 121.965Z" fill="#F0F0F0"/>
<path d="M248.572 173.319C262.393 173.319 273.598 162.114 273.598 148.293C273.598 134.471 262.393 123.266 248.572 123.266C234.75 123.266 223.545 134.471 223.545 148.293C223.545 162.114 234.75 173.319 248.572 173.319Z" fill="#F0F0F0"/>
<path d="M248.641 148.292H248.709L249.947 219.247H247.334L248.641 148.292Z" fill="#F0F0F0"/>
<path d="M109.982 148.547C110.462 148.492 110.923 148.333 111.334 148.08C111.745 147.827 112.096 147.487 112.362 147.085C112.627 146.682 112.801 146.225 112.871 145.748C112.942 145.271 112.906 144.784 112.768 144.321L122.281 137.46L116.583 135.296L108.422 142.143C107.661 142.427 107.031 142.981 106.65 143.698C106.27 144.416 106.166 145.249 106.358 146.038C106.55 146.827 107.025 147.519 107.693 147.981C108.361 148.444 109.176 148.645 109.982 148.547Z" fill="#FFB6B6"/>
<path d="M103.011 215.854L99.9899 215.853L98.5527 204.202H103.011L103.011 215.854Z" fill="#FFB6B6"/>
<path d="M103.781 218.782L94.041 218.782V218.658C94.0411 217.653 94.4405 216.689 95.1515 215.978C95.8625 215.267 96.8267 214.867 97.8322 214.867L103.781 214.867L103.781 218.782Z" fill="#2F2E41"/>
<path d="M79.9361 215.854L76.9154 215.853L75.4785 204.202H79.9367L79.9361 215.854Z" fill="#FFB6B6"/>
<path d="M80.7071 218.782L70.9668 218.782V218.658C70.9669 217.653 71.3663 216.689 72.0773 215.978C72.7883 215.267 73.7525 214.867 74.758 214.867L80.7073 214.867L80.7071 218.782Z" fill="#2F2E41"/>
<path d="M82.2698 151.062L75.8681 186.071L73.6289 213.879L80.8986 213.522L85.0367 186.518L95.3225 163.006L98.3838 213.457L105.076 213.478L108.677 149.662L82.2698 151.062Z" fill="#2F2E41"/>
<path d="M109.496 110.99L100.523 107.42L90.2293 108.598L81.5027 113.422C81.5027 113.422 84.1721 146.9 80.3027 154.753C80.3027 154.753 83.403 159.047 96.0352 157.999C96.0352 157.999 108.34 156.444 108.645 152.409C108.95 148.374 109.014 141.038 109.014 141.038L113.286 126.319L109.496 110.99Z" fill="#FF2E92"/>
<path d="M85.0134 114.066L81.5059 113.422C81.5059 113.422 77.7737 115.058 77.812 119.934C77.8503 124.811 71.2186 141.159 79.1528 141.845C87.087 142.53 85.0134 130.251 85.0134 130.251V114.066Z" fill="#FF2E92"/>
<path d="M106.65 113.068L109.496 110.99C109.496 110.99 113.841 111.972 115.449 115.47C115.449 115.47 133.267 128.393 128.366 133.294C123.465 138.195 113.474 144.227 113.474 144.227L109.775 140.039L118.953 131.725L111.424 124.866L106.65 113.068Z" fill="#FF2E92"/>
<path d="M102.101 98.1378C102.099 100.091 101.323 101.963 99.9412 103.344C98.5598 104.724 96.6868 105.5 94.7339 105.5C92.7809 105.5 90.9079 104.724 89.5265 103.344C88.1451 101.963 87.3685 100.091 87.3672 98.1378V97.8551C87.4427 95.9283 88.2707 94.1079 89.6734 92.7847C91.0761 91.4616 92.9417 90.7412 94.8696 90.7782C96.7976 90.8152 98.6341 91.6067 99.985 92.9827C101.336 94.3587 102.093 96.2096 102.095 98.1378H102.101Z" fill="#FFB6B6"/>
<path d="M95.8514 96.9502C96.3227 96.8729 96.8335 96.7994 97.2558 97.0162C98.1738 97.4855 97.9627 98.8163 98.4641 99.6948C98.662 100.044 98.9824 100.328 99.1144 100.705C99.2463 101.082 99.1653 101.553 99.3726 101.917C99.6724 102.443 100.485 102.52 101.018 102.208C101.523 101.858 101.888 101.342 102.051 100.75C102.228 100.249 102.377 99.6948 102.805 99.3668C102.961 99.2782 103.1 99.1642 103.218 99.0294C103.307 98.8508 103.341 98.6503 103.316 98.4525C103.316 97.1783 103.118 96.1905 103.407 94.9558C103.868 92.9652 104.291 91.9812 102.828 90.5053C102.079 89.759 101.115 89.2659 100.072 89.0952C99.1295 88.9407 97.7421 90.2564 96.7883 90.2263C94.3622 90.1302 92.3151 87.8832 90.0022 88.6089C88.9909 88.9266 88.1141 89.5719 87.5102 90.4431C86.3791 92.1094 86.4809 92.7541 86.6449 94.7428C86.6425 94.8938 86.6866 95.0419 86.7712 95.1669C86.856 95.2687 86.9936 95.3234 87.0766 95.4271C87.1658 95.564 87.1995 95.7299 87.1708 95.8908C87.1456 96.2147 87.0699 96.5328 86.9465 96.8333C86.9154 96.8836 86.8962 96.9403 86.8903 96.9991C86.8844 97.0579 86.8921 97.1172 86.9126 97.1726C86.959 97.2356 87.0255 97.2808 87.1011 97.3008C88.0436 97.6401 89.0615 96.986 90.07 97.003C91.0785 97.0199 92.0361 97.6948 93.0766 97.5478C93.9947 97.4064 94.9259 97.1029 95.8514 96.9502Z" fill="#2F2E41"/>
<path d="M95.8052 137.904C95.7424 137.929 95.6771 137.945 95.6104 137.955L87.4304 139.096C87.2325 139.125 87.0308 139.085 86.8586 138.983C86.6864 138.882 86.5539 138.725 86.4828 138.538L79.4417 120.216C79.3961 120.098 79.3766 119.971 79.3845 119.844C79.3925 119.717 79.4277 119.593 79.4877 119.481C79.5478 119.369 79.6313 119.272 79.7325 119.195C79.8337 119.118 79.9503 119.064 80.0744 119.036L87.7669 117.32C87.8263 117.306 87.8837 117.285 87.9377 117.257L95.4197 113.345C95.4775 113.315 95.5385 113.291 95.6016 113.275L103.836 111.08C104.047 111.023 104.271 111.046 104.465 111.146C104.66 111.245 104.811 111.413 104.889 111.617L111.028 127.592C111.082 127.731 111.1 127.882 111.079 128.029C111.059 128.177 111.001 128.318 110.912 128.437L108.789 131.288C108.689 131.423 108.553 131.526 108.397 131.586L103.757 133.369C103.723 133.382 103.691 133.397 103.66 133.415L95.9279 137.846C95.8886 137.869 95.8476 137.888 95.8052 137.904Z" fill="white"/>
<path d="M99.612 113.522L98.5663 113.801L95.7954 114.54L95.7905 114.541L91.9969 116.525L90.5891 117.261L90.5884 117.261L88.474 118.367L88.416 118.38L86.2195 118.87L85.1579 119.107L80.8281 120.073L87.6254 137.76L92.0872 137.137L93.1812 136.985L95.513 136.659L95.5401 136.655L103.033 132.361L107.592 130.609L109.673 127.814L103.756 112.417L99.612 113.522Z" fill="#E4E4E4"/>
<path d="M104.729 114.954L82.1875 123.616L82.5735 124.621L105.115 115.958L104.729 114.954Z" fill="white"/>
<path d="M106.016 118.302L83.4746 126.965L83.8606 127.969L106.402 119.307L106.016 118.302Z" fill="white"/>
<path d="M108.615 125.065L86.0742 133.728L86.4602 134.732L109.001 126.07L108.615 125.065Z" fill="white"/>
<path d="M99.612 113.522L106.36 131.082L105.356 131.468L98.5664 113.801L99.612 113.522Z" fill="white"/>
<path d="M91.9979 116.524L90.6121 120.38L90.1317 121.717L89.0109 124.838L88.7707 125.505L88.5302 126.176L88.2138 127.056L85.9421 133.378L85.3516 131.841L87.2038 126.685L87.6229 125.518L87.6842 125.348L88.1798 123.968L88.805 122.228L89.2857 120.89L90.5892 117.261L90.5898 117.261L91.9979 116.524Z" fill="white"/>
<path d="M86.218 118.869L93.1794 136.984L92.0855 137.137L85.1562 119.107L86.218 118.869Z" fill="white"/>
<path d="M84.7299 136.215C86.4998 136.215 87.9345 134.781 87.9345 133.011C87.9345 131.241 86.4998 129.806 84.7299 129.806C82.9601 129.806 81.5254 131.241 81.5254 133.011C81.5254 134.781 82.9601 136.215 84.7299 136.215Z" fill="#FFB6B6"/>
<path d="M217.052 113.893C248.503 113.893 273.999 88.3973 273.999 56.9466C273.999 25.4958 248.503 0 217.052 0C185.601 0 160.105 25.4958 160.105 56.9466C160.105 88.3973 185.601 113.893 217.052 113.893Z" fill="#E4E4E4"/>
<path opacity="0.1" d="M259.099 18.9109C264.411 31.3362 265.131 45.2455 261.132 58.1532C257.132 71.0609 248.674 82.126 237.267 89.3711C225.86 96.6162 212.249 99.5693 198.865 97.7027C185.482 95.836 173.198 89.2712 164.209 79.1815C167.454 86.7728 172.31 93.5679 178.442 99.096C184.574 104.624 191.834 108.753 199.72 111.197C207.606 113.64 215.929 114.34 224.112 113.248C232.295 112.156 240.143 109.297 247.112 104.871C254.081 100.445 260.004 94.5561 264.471 87.6133C268.938 80.6705 271.842 72.8395 272.983 64.6628C274.123 56.4862 273.472 48.1594 271.074 40.2593C268.677 32.3593 264.591 25.0749 259.099 18.9109Z" fill="black"/>
<path d="M216.897 56.9463H216.74L213.924 218.399H219.869L216.897 56.9463Z" fill="#E4E4E4"/>
</g>
<defs>
<clipPath id="clip0_697_6530">
<rect width="273.999" height="219.247" fill="white"/>
</clipPath>
</defs>
</svg>
